<svg id="Light" xmlns="http://www.w3.org/2000/svg" width="32" height="32" viewBox="0 0 32 32">
  <rect id="Rectangle" width="32" height="32" fill="#fff"/>
  <path id="Shape" d="M4.444,14.28H2.963v-2.8H0V7.993a4.454,4.454,0,0,1,.27-.4A12.21,12.21,0,0,0,2.444,2.772L3.017,0h7.229c.07.344.135.664.2.965L10.448,1c.644,3.2.838,4.168,2.885,6.992V11.48H4.444v2.8ZM1.481,8.96v1.12H11.852V8.96ZM4.236,1.4c-.035.171-.069.343-.1.515a14.28,14.28,0,0,1-2.1,5.644h9.2a14.268,14.268,0,0,1-2.1-5.638c-.035-.176-.069-.349-.1-.522H4.236Z" transform="translate(9.333 2.133)" fill="#6e768a"/>
  <path id="Path" d="M.968,0a.925.925,0,1,0,0,1.847A.925.925,0,1,0,.968,0Z" transform="translate(11.959 17.143)" fill="#6e768a"/>
  <path id="Shape-2" data-name="Shape" d="M8,15.4H0V13.588A2.639,2.639,0,0,1,2.667,10.92h.592V0H4.74V10.92h.522a2.752,2.752,0,0,1,1.948.787A2.625,2.625,0,0,1,8,13.588V15.4ZM2.667,12.32a1.188,1.188,0,0,0-1.185,1.268V14H6.519v-.412A1.249,1.249,0,0,0,5.262,12.32Z" transform="translate(12 14.733)" fill="#6e768a"/>
</svg>
