<svg id="Armchair" xmlns="http://www.w3.org/2000/svg" width="32" height="32" viewBox="0 0 32 32">
  <rect id="Rectangle" width="32" height="32" fill="#fff"/>
  <path id="Path" d="M1.8,4.931a2.933,2.933,0,0,1,2.83-3.053h9.2a2.862,2.862,0,0,1,2.74,3.053v5.212h1.8V4.931A4.7,4.7,0,0,0,13.837,0h-9.2A4.776,4.776,0,0,0,0,4.931v5.212H1.8Z" transform="translate(6.991 2.667)" fill="#6e768a"/>
  <path id="Shape" d="M21.2,15.021h0L18.791,10.9H8.306L5.918,14.986l-1.541-.964,1.877-3.211A4.63,4.63,0,0,1,2.8,7.23l-.221-1A2.786,2.786,0,0,1,0,3.633V2.587A2.594,2.594,0,0,1,2.6,0H7.685l.009,4.123a20.366,20.366,0,0,1,5.645-.744,20.023,20.023,0,0,1,5.523.721L18.819,0h5.148a2.68,2.68,0,0,1,2.7,2.586v.49A2.647,2.647,0,0,1,25.9,4.932a2.6,2.6,0,0,1-1.8.8l-.157.925a4.627,4.627,0,0,1-3.167,4.057l1.954,3.334L21.2,15.02ZM2.6,1.879a.75.75,0,0,0-.795.707V3.633c0,.352.645.875,1.537.875h.726l.507,2.353a2.681,2.681,0,0,0,2.64,2.155H19.463a2.757,2.757,0,0,0,2.692-2.592l.234-2.668h1.578c.432,0,.9-.26.9-.68v-.49c0-.417-.473-.707-.9-.707H20.64L20.692,6.8l-1.247-.545a16.687,16.687,0,0,0-6.138-1.028A16.8,16.8,0,0,0,7.126,6.262L5.9,6.787l-.01-4.908Z" transform="translate(2.667 14.312)" fill="#6e768a"/>
  <path id="Path-2" data-name="Path" d="M1.021,2.149A1.076,1.076,0,0,0,1.021,0,1.076,1.076,0,0,0,1.021,2.149Z" transform="translate(13.208 8.401)" fill="#6e768a"/>
  <path id="Path-3" data-name="Path" d="M1.022,2.149A1.076,1.076,0,0,0,1.022,0,1.076,1.076,0,0,0,1.022,2.149Z" transform="translate(17.716 8.401)" fill="#6e768a"/>
  <path id="Path-4" data-name="Path" d="M1.022,2.149A1.076,1.076,0,0,0,1.022,0,1.076,1.076,0,0,0,1.022,2.149Z" transform="translate(15.487 11.411)" fill="#6e768a"/>
</svg>
