<svg id="Bed" xmlns="http://www.w3.org/2000/svg" width="32" height="32" viewBox="0 0 32 32">
  <rect id="Rectangle" width="32" height="32" fill="#fff"/>
  <path id="Shape" d="M25.194,17.185H1.4A1.4,1.4,0,0,1,0,15.821V11.587a1.289,1.289,0,0,1,1.4-1.216h.4V5.08A4.949,4.949,0,0,1,3.353,1.472,5.348,5.348,0,0,1,7.068,0h12.46a5.461,5.461,0,0,1,3.75,1.472A4.91,4.91,0,0,1,24.869,5.08v5.291h.325a1.356,1.356,0,0,1,1.472,1.216v4.234A1.477,1.477,0,0,1,25.194,17.185ZM1.5,11.852V15.7h23.67V11.852ZM13.606,7.64h0c4.4,0,8.066,1.012,9.559,2.641l-.029.089h.235V5.08a3.731,3.731,0,0,0-3.844-3.6H7.068A3.855,3.855,0,0,0,4.412,2.52,3.486,3.486,0,0,0,3.3,5.08v5.291h.5l-.063-.113C5.459,8.643,9.242,7.64,13.606,7.64Zm.019,1.568A19.052,19.052,0,0,0,6.6,10.371H20.435A17.435,17.435,0,0,0,13.625,9.208Z" transform="translate(2.667 5.333)" fill="#6e768a"/>
  <path id="Path" d="M1.5,0H0V2.667H1.5Z" transform="translate(4.465 24)" fill="#6e768a"/>
  <path id="Path-2" data-name="Path" d="M1.5,0H0V2.667H1.5Z" transform="translate(26.038 24)" fill="#6e768a"/>
  <path id="Path-3" data-name="Path" d="M1.5,2.363a.827.827,0,0,1,.724-.882H5.655c.364,0,.721.593.721.889h1.5A2.4,2.4,0,0,0,5.655,0H2.222A2.309,2.309,0,0,0,0,2.363V3.851H1.5Z" transform="translate(7.461 9.482)" fill="#6e768a"/>
  <path id="Path-4" data-name="Path" d="M2.219,1.481H5.292c.4,0,.65.41.65.882V3.851h1.5V2.363A2.249,2.249,0,0,0,5.292,0H2.219A2.4,2.4,0,0,0,0,2.37H1.5C1.5,2.074,1.855,1.481,2.219,1.481Z" transform="translate(17.099 9.482)" fill="#6e768a"/>
</svg>
