<svg id="DSLR" xmlns="http://www.w3.org/2000/svg" width="15.75" height="12.797" viewBox="0 0 15.75 12.797">
  <path id="Path" d="M9.844,12.8H1.969A1.968,1.968,0,0,1,0,10.828V3.938A1.969,1.969,0,0,1,1.969,1.969H4.282L4.43.944A.963.963,0,0,1,5.414,0h4.922a.963.963,0,0,1,.984.945l.148,1.024h2.313A1.969,1.969,0,0,1,15.75,3.938V7.383a.492.492,0,1,1-.984,0V3.938a.985.985,0,0,0-.985-.985H11.039a.49.49,0,0,1-.487-.422l-.211-1.476a.563.563,0,0,1,0-.07H5.414a.562.562,0,0,1-.005.07L5.2,2.531a.49.49,0,0,1-.487.422H1.969a.985.985,0,0,0-.985.985v6.89a.985.985,0,0,0,.985.985H9.844a.492.492,0,1,1,0,.984Z" transform="translate(0 0)" fill="#fff"/>
  <path id="Path-2" data-name="Path" d="M4.429.993H.492a.493.493,0,0,1,0-.985H4.429a.493.493,0,1,1,0,.985Z" transform="translate(4.43 1.962)" fill="#fff"/>
  <path id="Shape" d="M3.445,6.891A3.446,3.446,0,1,1,6.89,3.445,3.45,3.45,0,0,1,3.445,6.891Zm0-5.908A2.461,2.461,0,1,0,5.906,3.445,2.464,2.464,0,0,0,3.445.984Z" transform="translate(4.43 3.938)" fill="#fff"/>
  <path id="Path-3" data-name="Path" d="M.5.992A.492.492,0,1,0,.008.5.492.492,0,0,0,.5.992Z" transform="translate(12.789 3.93)" fill="#fff"/>
  <path id="Path-4" data-name="Path" d="M3.439,2.461a.5.5,0,0,1-.348-.145L1.963,1.188.834,2.316a.492.492,0,0,1-.7-.7L1.615.144a.492.492,0,0,1,.7,0L3.787,1.62a.492.492,0,0,1-.348.841Z" transform="translate(11.326 8.368)" fill="#fff"/>
  <path id="Path-5" data-name="Path" d="M.5,4.43a.492.492,0,0,1-.492-.492V.493a.492.492,0,1,1,.984,0V3.938A.492.492,0,0,1,.5,4.43Z" transform="translate(12.789 8.367)" fill="#fff"/>
</svg>
