<svg xmlns="http://www.w3.org/2000/svg" width="20" height="18" viewBox="0 0 20 18">
  <path id="Shape" d="M5.221,18a2.589,2.589,0,0,1-1.207-.3,2.229,2.229,0,0,1-.954-.952,1.93,1.93,0,0,1-.172-1.272,2.066,2.066,0,0,1,.673-1.129,2.471,2.471,0,0,1,1.274-.578l-.23-.843h-.04L2.677,3.573l.033,0L2.3,1.418H0V0H3.631l.717,3.753L20,5.435l-1.919,7.5H6.234l.221.812H16.909a2.536,2.536,0,0,1,1.4.408,2.133,2.133,0,0,1,.859,1.068,1.927,1.927,0,0,1-.01,1.317,2.169,2.169,0,0,1-.875,1.058,2.553,2.553,0,0,1-1.37.391h-.033a2.525,2.525,0,0,1-1.389-.427,2.124,2.124,0,0,1-.841-1.08,1.9,1.9,0,0,1,.032-1.317H7.457a1.911,1.911,0,0,1,.05,1.28,2.108,2.108,0,0,1-.777,1.075,2.517,2.517,0,0,1-1.324.48C5.346,18,5.283,18,5.221,18Zm11.686-2.84a.87.87,0,0,0-.151.013.819.819,0,0,0-.4.194.682.682,0,0,0-.215.36.645.645,0,0,0,.044.407.735.735,0,0,0,.29.317.851.851,0,0,0,.437.119.829.829,0,0,0,.554-.207.663.663,0,0,0,.231-.5.648.648,0,0,0-.133-.391.762.762,0,0,0-.352-.259A.87.87,0,0,0,16.908,15.16Zm-11.68,0a.851.851,0,0,0-.436.119.726.726,0,0,0-.289.316A.64.64,0,0,0,4.457,16a.683.683,0,0,0,.215.361.809.809,0,0,0,.4.193.89.89,0,0,0,.154.014.862.862,0,0,0,.3-.053.768.768,0,0,0,.353-.26.647.647,0,0,0,.132-.391.668.668,0,0,0-.23-.5A.837.837,0,0,0,5.227,15.16Zm-.6-9.95.215,1.127,1.045,5.176H16.821l1.244-4.857Z" transform="translate(0 0)" fill="#4f585e"/>
</svg>
