<svg xmlns="http://www.w3.org/2000/svg" width="38" height="22" viewBox="0 0 38 22">
  <g id="Group_665" data-name="Group 665" transform="translate(-30 -12)">
    <rect id="Rectangle" width="36" height="20" rx="1" stroke-width="2" fill="#fff" stroke="#6e768a" stroke-miterlimit="10" transform="translate(31 13)"/>
    <path id="Path" d="M6,2.5A2.784,2.784,0,0,1,3,5V17a2.784,2.784,0,0,1,3,2.5A2.784,2.784,0,0,1,3,22,3.228,3.228,0,0,1,.6,21H0V1H.6A3.228,3.228,0,0,1,3,0,2.784,2.784,0,0,1,6,2.5Z" transform="translate(31 12)" fill="#6e768a"/>
    <path id="Path-2" data-name="Path" d="M3,5A2.784,2.784,0,0,1,0,2.5,2.784,2.784,0,0,1,3,0,3.228,3.228,0,0,1,5.4,1H6V21H5.4A3.228,3.228,0,0,1,3,22a2.784,2.784,0,0,1-3-2.5A2.784,2.784,0,0,1,3,17Z" transform="translate(61 12)" fill="#6e768a"/>
    <circle id="Oval" cx="6" cy="6" r="6" transform="translate(43 17)" fill="#6e768a"/>
    <path id="Path-3" data-name="Path" d="M2.283,3.292c-.946-.246-1.25-.5-1.25-.9,0-.454.421-.771,1.125-.771.742,0,1.017.354,1.042.875h.921A1.66,1.66,0,0,0,2.783.913V0H1.533V.9A1.626,1.626,0,0,0,.075,2.4c0,.963.8,1.442,1.958,1.721,1.042.25,1.25.617,1.25,1,0,.288-.2.746-1.125.746C1.3,5.875.962,5.492.917,5H0A1.746,1.746,0,0,0,1.533,6.6v.9h1.25V6.6C3.6,6.45,4.242,5.979,4.242,5.125,4.242,3.942,3.229,3.537,2.283,3.292Z" transform="translate(46.875 19.25)" fill="#fff"/>
  </g>
</svg>
