<svg id="Dressing_Table" data-name="Dressing Table" xmlns="http://www.w3.org/2000/svg" width="24" height="32" viewBox="0 0 24 32">
  <path id="Shape" d="M1.38,28.364H0V15.054H3.586V6.867a6.866,6.866,0,0,1,2-4.853,6.639,6.639,0,0,1,9.525,0,6.866,6.866,0,0,1,2,4.853v8.187H20.69V28.081H19.31V21.85H1.38v6.512ZM11.035,16.47v3.964H19.31V16.47Zm-9.655,0v3.964H9.655V16.47Zm3.586-2.831v1.416H15.724V13.639ZM10.345,1.416a5.307,5.307,0,0,0-3.788,1.6A5.441,5.441,0,0,0,4.965,6.867v5.355H15.724V6.867a5.441,5.441,0,0,0-1.591-3.853A5.307,5.307,0,0,0,10.345,1.416Z" transform="translate(1.655 1.937)" fill="#43484b"/>
  <path id="Path" d="M1.379,4.037A2.606,2.606,0,0,1,3.951,1.418a2.523,2.523,0,0,1,1.813.768l.98-1A3.946,3.946,0,0,0,0,4.037V7.693H1.379Z" transform="translate(8 4.767)" fill="#43484b"/>
  <path id="Path-2" data-name="Path" d="M2.207,0H0V1.416H2.207Z" transform="translate(15.724 19.54)" fill="#43484b"/>
  <path id="Path-3" data-name="Path" d="M2.483,0H0V1.416H2.483Z" transform="translate(6.345 19.54)" fill="#43484b"/>
</svg>
