<svg xmlns="http://www.w3.org/2000/svg" width="14.667" height="14.667" viewBox="0 0 14.667 14.667">
  <g id="Group_663" data-name="Group 663" transform="translate(-2 -2)">
    <path id="Path_Copy" data-name="Path Copy" d="M9.775,1.853a6,6,0,1,0,3.558,5.484V6.724a.667.667,0,1,1,1.333,0v.613a7.334,7.334,0,1,1-4.349-6.7.667.667,0,0,1-.543,1.218Z" transform="translate(2 2)" fill="#27ae60"/>
    <path id="Path_Copy_2" data-name="Path Copy 2" d="M9.8.195a.667.667,0,0,1,0,.943L3.138,7.811a.665.665,0,0,1-.943,0l-2-2a.666.666,0,0,1,.943-.942L2.666,6.4l6.2-6.2A.667.667,0,0,1,9.8.195Z" transform="translate(6.666 3.337)" fill="#27ae60"/>
  </g>
</svg>
