<svg id="Heart" xmlns="http://www.w3.org/2000/svg" width="24" height="24" viewBox="0 0 24 24">
  <path id="Shape" d="M11.451,20.232a.994.994,0,0,1-.707-.293L1.9,11.1A6.456,6.456,0,0,1,0,6.5a6.542,6.542,0,0,1,1.9-4.6,6.5,6.5,0,0,1,9.194,0l.353.353.354-.353A6.5,6.5,0,1,1,21,11.1l-8.84,8.84A.991.991,0,0,1,11.451,20.232ZM6.5,2A4.5,4.5,0,0,0,3.318,9.685l8.132,8.133,8.133-8.133a4.5,4.5,0,1,0-6.365-6.366l-1.061,1.06a1,1,0,0,1-1.414,0l-1.06-1.06A4.472,4.472,0,0,0,6.5,2Z" transform="translate(1 2)" fill="#4f585e"/>
</svg>
