<svg xmlns="http://www.w3.org/2000/svg" width="21" height="12.122" viewBox="0 0 21 12.122">
  <g id="Group_663" data-name="Group 663" transform="translate(-1.5 -6)">
    <path id="Path" d="M6.125,12.122a.88.88,0,0,1-.619-.254l-5.25-5.2a.861.861,0,0,1,0-1.225l5.25-5.2a.881.881,0,0,1,1.227.01.861.861,0,0,1,.011,1.215L2.112,6.056l4.631,4.587a.86.86,0,0,1,.19.944A.875.875,0,0,1,6.125,12.122Z" transform="translate(1.5 6)" fill="#43484b"/>
    <path id="Path-2" data-name="Path" d="M20.125,1.733H.875A.867.867,0,1,1,.875,0h19.25a.867.867,0,1,1,0,1.733Z" transform="translate(1.5 11.189)" fill="#43484b"/>
  </g>
</svg>
