<svg xmlns="http://www.w3.org/2000/svg" width="18.482" height="18.482" viewBox="0 0 18.482 18.482">
  <g id="Icon_ionic-ios-help-circle-outline" data-name="Icon ionic-ios-help-circle-outline" transform="translate(-3.375 -3.375)">
    <path id="Path_1" data-name="Path 1" d="M12.616,4.619A7.994,7.994,0,1,1,6.96,6.96a7.944,7.944,0,0,1,5.656-2.341m0-1.244a9.241,9.241,0,1,0,9.241,9.241,9.24,9.24,0,0,0-9.241-9.241Z"/>
    <path id="Path_2" data-name="Path 2" d="M16.375,11.25c1.666,0,2.812.924,2.812,2.253a2.173,2.173,0,0,1-1.248,1.973c-.773.449-1.035.777-1.035,1.346v.351H15.362l-.013-.382A1.85,1.85,0,0,1,16.4,14.835c.751-.449,1.066-.733,1.066-1.284a1.078,1.078,0,0,0-1.2-.955,1.124,1.124,0,0,0-1.191,1.093H13.5C13.531,12.259,14.588,11.25,16.375,11.25Zm-1.168,7.615a.954.954,0,1,1,.951.915A.931.931,0,0,1,15.206,18.865Z" transform="translate(-3.727 -2.899)"/>
  </g>
</svg>
