<svg xmlns="http://www.w3.org/2000/svg" width="26.183" height="26.183" viewBox="0 0 26.183 26.183">
  <path id="Icon_awesome-plus-circle" data-name="Icon awesome-plus-circle" d="M13.654.563A13.091,13.091,0,1,0,26.745,13.654,13.089,13.089,0,0,0,13.654.563Zm7.6,14.569a.635.635,0,0,1-.633.633H15.765v4.856a.635.635,0,0,1-.633.633H12.176a.635.635,0,0,1-.633-.633V15.765H6.686a.635.635,0,0,1-.633-.633V12.176a.635.635,0,0,1,.633-.633h4.856V6.686a.635.635,0,0,1,.633-.633h2.956a.635.635,0,0,1,.633.633v4.856h4.856a.635.635,0,0,1,.633.633Z" transform="translate(-0.563 -0.563)"/>
</svg>
