<svg xmlns="http://www.w3.org/2000/svg" width="24.816" height="12.986" viewBox="0 0 24.816 12.986">
  <path id="Shape" d="M18.881,12.986a2.538,2.538,0,0,1-2.536-2.533c0-.013,0-.025,0-.038s0-.018,0-.027H12.915c0,.009,0,.018,0,.027s0,.025,0,.038a2.538,2.538,0,0,1-2.536,2.533,2.538,2.538,0,0,1-2.536-2.533c0-.014,0-.027,0-.041s0-.018,0-.027A2.056,2.056,0,0,1,5.866,8.333V7.99H4.2V6.731H5.866V5.693H1.98V4.434H5.866V3.4H0V2.137H5.866V2.055A2.057,2.057,0,0,1,7.921,0h9.535A2.057,2.057,0,0,1,19.5,1.91h2.173a.638.638,0,0,1,.3.074.625.625,0,0,1,.226.2l2.512,3.724a.624.624,0,0,1,.107.352V9.759a.627.627,0,0,1-.629.629H21.414c0,.009,0,.018,0,.027s0,.025,0,.038a2.553,2.553,0,0,1-.744,1.791A2.521,2.521,0,0,1,18.881,12.986Zm0-3.81a1.3,1.3,0,0,0-.248.024,1.287,1.287,0,1,0,.248-.024Zm-8.5,0a1.274,1.274,0,0,0-.9.373,1.28,1.28,0,1,0,.9-.373Zm9.15-6.007V8A2.537,2.537,0,0,1,21.04,9.129h2.517V6.456L21.341,3.169ZM10.382,7.917a2.534,2.534,0,0,1,2.159,1.211h4.181A2.53,2.53,0,0,1,18.251,8V2.055a.8.8,0,0,0-.8-.8H7.921a.8.8,0,0,0-.8.8V8.333a.8.8,0,0,0,.234.563.79.79,0,0,0,.563.233h.3a2.531,2.531,0,0,1,2.159-1.211Z" fill="#353a3e"/>
</svg>
