<svg id="Group" xmlns="http://www.w3.org/2000/svg" width="44" height="13.34" viewBox="0 0 44 13.34">
  <path id="Path" d="M0,12.572,2.235,0H5.727L3.562,12.572Z" transform="translate(16.133 0.419)" fill="#3c58bf"/>
  <path id="Path-2" data-name="Path" d="M0,12.572,2.864,0H5.727L3.562,12.572Z" transform="translate(16.133 0.419)" fill="#293688"/>
  <path id="Path-3" data-name="Path" d="M10.686.559A8.848,8.848,0,0,0,7.473,0C3.981,0,1.467,1.746,1.467,4.26c0,1.886,1.746,2.864,3.142,3.492S6.425,8.8,6.425,9.359c0,.838-1.117,1.257-2.1,1.257a7.587,7.587,0,0,1-3.352-.7L.489,9.708,0,12.571a11.3,11.3,0,0,0,3.981.7c3.7,0,6.146-1.746,6.146-4.4,0-1.467-.908-2.584-3-3.492C5.867,4.749,5.1,4.4,5.1,3.771c0-.558.629-1.117,2.026-1.117a6.414,6.414,0,0,1,2.654.489l.349.14Z" transform="translate(21.651)" fill="#3c58bf"/>
  <path id="Path-4" data-name="Path" d="M10.686.559A8.848,8.848,0,0,0,7.473,0C3.981,0,2.1,1.746,2.1,4.26A3.651,3.651,0,0,0,4.609,7.752c1.4.629,1.816,1.048,1.816,1.607,0,.838-1.117,1.257-2.1,1.257a7.587,7.587,0,0,1-3.352-.7L.489,9.708,0,12.571a11.3,11.3,0,0,0,3.981.7c3.7,0,6.146-1.746,6.146-4.4,0-1.467-.908-2.584-3-3.492C5.867,4.749,5.1,4.4,5.1,3.771c0-.558.629-1.117,2.026-1.117a6.414,6.414,0,0,1,2.654.489l.349.14Z" transform="translate(21.651)" fill="#293688"/>
  <path id="Shape" d="M3.771,12.573H0L5.238.908C5.589.065,6.212,0,7.054,0H9.778L12.71,12.571H9.359l-.42-2.1H4.47l-.7,2.1ZM7.333,3.422c-.206.483-.487,1.251-.49,1.258-.049.127-1.192,3.09-1.4,3.7v.07H8.381c-.135-.677-.809-3.711-.838-3.84Z" transform="translate(31.289 0.419)" fill="#3c58bf"/>
  <path id="Shape-2" data-name="Shape" d="M3.771,12.573H0L6.076.908C6.427.065,7.05,0,7.892,0H9.778L12.71,12.571H9.359l-.42-2.1H4.47l-.7,2.1ZM7.333,3.422c-.206.483-.487,1.251-.49,1.258-.046.125-1.126,3.025-1.4,3.7v.07H8.381c-.135-.677-.809-3.711-.838-3.84Z" transform="translate(31.289 0.419)" fill="#293688"/>
  <path id="Path-5" data-name="Path" d="M5.238,8.73,4.889,6.914A10.124,10.124,0,0,0,0,1.4L3.143,12.571H6.914L12.571,0H8.8Z" transform="translate(4.47 0.489)" fill="#3c58bf"/>
  <path id="Path-6" data-name="Path" d="M5.238,8.73,4.889,6.914A10.124,10.124,0,0,0,0,1.4L3.143,12.571H6.914L12.571,0H9.5Z" transform="translate(4.47 0.489)" fill="#293688"/>
  <path id="Path-7" data-name="Path" d="M0,0,.629.14c4.469,1.048,7.542,3.7,8.73,6.844L8.1,1.048C7.892.21,7.263,0,6.495,0Z" transform="translate(0 0.419)" fill="#ffbc00"/>
  <path id="Path-8" data-name="Path" d="M0,0C4.47,1.048,8.171,3.772,9.359,6.914L8.171,1.956A1.7,1.7,0,0,0,6.495.629Z" transform="translate(0 0.419)" fill="#f7981d"/>
  <path id="Path-9" data-name="Path" d="M0,0C4.47,1.048,8.171,3.772,9.359,6.914L8.521,4.191A2.465,2.465,0,0,0,7.054,2.165Z" transform="translate(0 0.419)" fill="#ed7c00"/>
  <path id="Path-10" data-name="Path" d="M8.66,6.984,6.285,4.61,5.168,7.264,4.889,5.518A10.126,10.126,0,0,0,0,0L3.143,11.175H6.914Z" transform="translate(4.54 1.816)" fill="#051244"/>
  <path id="Path-11" data-name="Path" d="M3.562,3.073.559,0,0,3.073Z" transform="translate(16.133 9.918)" fill="#051244"/>
  <path id="Path-12" data-name="Path" d="M6.076,0c.279.279.419.489.349.768,0,.838-1.117,1.257-2.1,1.257a7.586,7.586,0,0,1-3.352-.7l-.489-.21L0,3.981a11.327,11.327,0,0,0,3.981.7,6.911,6.911,0,0,0,5.1-1.746Z" transform="translate(21.651 8.661)" fill="#051244"/>
  <path id="Path-13" data-name="Path" d="M0,9.149H3.282l.7-2.1h4.47l.419,2.1h3.352l-1.187-5.1L6.844,0l.21,1.118s.7,3.143.838,3.841H4.959c.279-.7,1.4-3.7,1.4-3.7S6.635.489,6.844,0" transform="translate(31.778 3.841)" fill="#051244"/>
</svg>
