<svg xmlns="http://www.w3.org/2000/svg" width="18.177" height="18.177" viewBox="0 0 18.177 18.177">
  <path id="Icon_simple-whatsapp" data-name="Icon simple-whatsapp" d="M13.252,10.892c-.228-.114-1.338-.657-1.545-.732s-.358-.114-.51.114-.584.73-.715.88-.264.159-.489.057a6.147,6.147,0,0,1-1.82-1.125A6.871,6.871,0,0,1,6.916,8.519c-.132-.227-.014-.352.1-.466s.228-.261.342-.4a1.92,1.92,0,0,0,.225-.376.416.416,0,0,0-.019-.4c-.057-.114-.509-1.227-.7-1.671s-.369-.386-.509-.386-.281-.011-.432-.011a.854.854,0,0,0-.6.272,2.528,2.528,0,0,0-.791,1.874,4.431,4.431,0,0,0,.923,2.329,10.1,10.1,0,0,0,3.863,3.4c.541.227.962.364,1.291.476a3.133,3.133,0,0,0,1.424.092,2.331,2.331,0,0,0,1.527-1.08,1.875,1.875,0,0,0,.136-1.079c-.056-.1-.2-.159-.432-.261M9.135,16.473H9.122a7.576,7.576,0,0,1-3.828-1.045l-.273-.162L2.181,16l.761-2.761-.181-.284a7.512,7.512,0,0,1,11.7-9.266,7.413,7.413,0,0,1,2.2,5.294,7.521,7.521,0,0,1-7.524,7.487m6.4-13.861A9.2,9.2,0,0,0,9.122,0,9,9,0,0,0,1.284,13.51L0,18.177l4.8-1.251a9.135,9.135,0,0,0,4.325,1.1h0a9.043,9.043,0,0,0,9.05-9.01,8.933,8.933,0,0,0-2.647-6.37"/>
</svg>
