<svg xmlns="http://www.w3.org/2000/svg" width="21.849" height="21.849" viewBox="0 0 21.849 21.849">
  <path id="Icon_metro-youtube" data-name="Icon metro-youtube" d="M8.826,1.928,7.35,4.856,5.874,1.928H3.991L6.652,6.565l.015-.009v3.566H8.033V6.556l.015.009,2.661-4.637Zm3.986,2.731a.692.692,0,0,1,.683.683V8.073a.683.683,0,1,1-1.366,0V5.342a.692.692,0,0,1,.683-.683Zm0-1.366a2.054,2.054,0,0,0-2.048,2.048V8.073a2.048,2.048,0,0,0,4.1,0V5.342a2.054,2.054,0,0,0-2.048-2.048Zm6.145,0V8.67c-.6.5-1.366.8-1.366-.974v-4.4H16.226v4.68h0c.021,1.129.259,3.161,2.729,1.509v.639h1.366V3.294H18.957Zm2.048,13.655a.684.684,0,0,0-.683.683v.683h1.366v-.683a.684.684,0,0,0-.683-.683Zm-6.145.683v3.585c.462.462,1.366.512,1.366-.171v-3.2C16.226,17.162,15.543,16.949,14.861,17.632Zm9.447-3.3A2.839,2.839,0,0,0,21.516,11.6c-1.489-.074-4.9-.111-7.888-.111s-6.642.037-8.131.111A2.839,2.839,0,0,0,2.7,14.336c-.089,1.6-.134,2.184-.134,2.985s.045,2,.134,3.606A2.839,2.839,0,0,0,5.5,23.665c1.489.074,5.138.111,8.131.111s6.4-.037,7.888-.111a2.839,2.839,0,0,0,2.792-2.738q.112-2,.112-3.606c0-1.068-.037-1.65-.112-2.985ZM6.667,22.411H5.3V15.583H3.936V14.218h4.1v1.366H6.667Zm5.462,0H10.764v-.639c-2.6,1.457-2.708.047-2.729-1.082h0V16.949H9.4v3.762c0,.825.77.745,1.366.248V16.949h1.366Zm5.462-1.385c0,1.427-1.462,1.844-2.731.734v.651H13.495V14.218H14.86v2.219c1.366-1.366,2.731-.853,2.731.512Zm5.462-2.712V19H20.323v1.366a.683.683,0,0,0,1.366,0V19.68h1.366v.683a2.048,2.048,0,0,1-4.1,0V17.632a2.048,2.048,0,0,1,4.1,0v.683Z" transform="translate(-2.571 -1.928)"/>
</svg>
